<svg version="1.1" id="Layer_1" xmlns="http://www.w3.org/2000/svg" xmlns:xlink="http://www.w3.org/1999/xlink" x="0px" y="0px"
	 width="100%" viewBox="0 0 259 194" enable-background="new 0 0 259 194" xml:space="preserve">
<path fill="#FEFEFF" opacity="1.000000" stroke="none" 
	d="
M183.000000,195.000000 
	C122.000000,195.000000 61.500008,195.000000 1.000008,195.000000 
	C1.000005,130.333344 1.000005,65.666679 1.000003,1.000017 
	C87.333321,1.000011 173.666641,1.000011 260.000000,1.000006 
	C260.000000,65.666649 260.000000,130.333298 260.000000,194.999969 
	C234.500000,195.000000 209.000000,195.000000 183.000000,195.000000 
M194.671738,172.075150 
	C195.491745,171.699661 196.311737,171.324173 196.874100,170.312134 
	C194.902802,166.871765 192.931488,163.431396 191.089096,159.500397 
	C191.046494,159.336761 191.003876,159.173126 191.141998,158.264771 
	C191.082001,157.505859 191.021988,156.746948 191.116455,155.084793 
	C191.064758,151.727875 191.013062,148.370941 191.142044,144.269043 
	C191.082016,143.509903 191.022003,142.750748 191.092026,141.500488 
	C191.052460,141.335815 191.012909,141.171143 191.156586,140.226807 
	C190.353302,134.674988 195.130173,137.022171 196.694763,136.342804 
	C189.819260,129.263016 182.858292,122.095230 176.634766,115.686783 
	C169.816589,122.539825 162.815094,129.577118 156.185257,136.240875 
	C157.097427,136.338165 158.856323,136.525772 161.053406,136.760117 
	C161.053406,144.596054 160.981628,152.196899 161.075211,159.795700 
	C161.155884,166.347061 163.746902,169.694626 170.762833,172.009338 
	C171.501343,171.982712 172.239853,171.956085 173.905685,172.094284 
	C180.610092,172.039490 187.314484,171.984695 194.671738,172.075150 
M150.120193,170.226929 
	C145.874481,166.582611 144.612808,161.985962 144.784546,156.440735 
	C145.111984,145.866730 144.879547,135.275375 144.879547,124.806061 
	C147.059097,124.391212 148.579681,124.101791 149.593277,123.908867 
	C142.816452,116.809753 136.074875,109.747543 130.100098,103.488617 
	C123.550568,110.012238 117.013542,116.523415 110.281242,123.229088 
	C111.489861,123.810722 113.041031,124.557205 114.808022,125.407555 
	C114.808022,136.945007 114.758270,148.575592 114.827347,160.205475 
	C114.866524,166.801453 117.462662,169.962662 124.762497,172.022720 
	C125.498848,171.987854 126.235207,171.952988 127.895157,172.104095 
	C133.602158,172.046219 139.309158,171.988342 145.498993,172.041306 
	C145.498993,172.041306 145.979309,171.920029 146.729874,172.091980 
	C147.493057,172.034073 148.256241,171.976151 149.657059,171.947952 
	C149.827988,171.610214 149.998932,171.272461 150.120193,170.226929 
M98.346237,112.404633 
	C99.969437,111.909767 101.592644,111.414902 102.876732,111.023415 
	C95.849464,103.835442 89.403946,97.242516 83.454720,91.157242 
	C76.551483,97.926613 69.493462,104.847763 62.260883,111.940086 
	C64.093956,112.159073 65.939049,112.379494 68.031555,112.629471 
	C68.031555,128.404816 68.000587,143.853745 68.045502,159.302444 
	C68.065910,166.324554 70.472939,169.570694 77.497429,171.972733 
	C77.497429,171.972733 77.977158,171.901077 78.898766,172.101303 
	C86.606453,172.042007 94.314133,171.982712 102.609665,172.060806 
	C103.106995,171.692245 103.604324,171.323700 103.859032,170.321152 
	C101.910675,167.548706 99.962318,164.776260 98.114227,161.258728 
	C98.059334,160.511566 98.004440,159.764420 98.135506,158.093582 
	C98.073509,143.391922 98.011513,128.690247 98.060989,113.500984 
	C98.013092,113.341286 97.965195,113.181587 98.346237,112.404633 
M240.607742,143.966843 
	C252.423492,115.830215 236.433609,84.113235 206.715805,77.382782 
	C202.674484,76.467506 201.164108,74.696793 199.626938,71.185921 
	C186.858795,42.023457 164.456848,25.428141 132.707001,23.687176 
	C103.443253,22.082535 80.653625,34.745758 64.568878,59.410828 
	C63.315735,61.332462 60.771622,62.978386 58.512123,63.593021 
	C22.159111,73.481956 5.198626,113.721336 23.871017,146.301575 
	C29.991180,156.980225 38.730808,164.782242 50.759575,169.795837 
	C50.759575,164.833038 50.949879,160.535599 50.649113,156.272812 
	C50.552963,154.910095 49.446705,153.263489 48.309845,152.383133 
	C33.347057,140.796295 27.411779,125.657700 32.139149,107.406441 
	C36.830284,89.295082 49.568790,79.214249 67.891975,76.462555 
	C71.380684,75.938637 72.894569,74.528831 74.414490,71.618134 
	C85.408234,50.564590 102.824303,38.829464 126.595757,37.873405 
	C150.116394,36.927433 168.625595,46.909229 181.182343,66.736252 
	C185.543533,73.622536 187.965408,81.737030 191.613708,90.068588 
	C192.653259,90.068588 194.792450,90.004845 196.926880,90.078796 
	C212.289352,90.611092 225.927338,101.921928 229.536423,117.091682 
	C233.055801,131.884323 226.904327,145.043732 212.768829,153.097244 
	C211.697632,153.707550 210.060272,154.637344 210.006744,155.500519 
	C209.727875,159.997635 209.876755,164.521271 209.876755,169.669250 
	C223.885010,164.775635 234.128448,157.192322 240.607742,143.966843 
z"/>
<path fill="#364AC5" opacity="1.000000" stroke="none" 
	d="
M240.426178,144.299866 
	C234.128448,157.192322 223.885010,164.775635 209.876755,169.669250 
	C209.876755,164.521271 209.727875,159.997635 210.006744,155.500519 
	C210.060272,154.637344 211.697632,153.707550 212.768829,153.097244 
	C226.904327,145.043732 233.055801,131.884323 229.536423,117.091682 
	C225.927338,101.921928 212.289352,90.611092 196.926880,90.078796 
	C194.792450,90.004845 192.653259,90.068588 191.613708,90.068588 
	C187.965408,81.737030 185.543533,73.622536 181.182343,66.736252 
	C168.625595,46.909229 150.116394,36.927433 126.595757,37.873405 
	C102.824303,38.829464 85.408234,50.564590 74.414490,71.618134 
	C72.894569,74.528831 71.380684,75.938637 67.891975,76.462555 
	C49.568790,79.214249 36.830284,89.295082 32.139149,107.406441 
	C27.411779,125.657700 33.347057,140.796295 48.309845,152.383133 
	C49.446705,153.263489 50.552963,154.910095 50.649113,156.272812 
	C50.949879,160.535599 50.759575,164.833038 50.759575,169.795837 
	C38.730808,164.782242 29.991180,156.980225 23.871017,146.301575 
	C5.198626,113.721336 22.159111,73.481956 58.512123,63.593021 
	C60.771622,62.978386 63.315735,61.332462 64.568878,59.410828 
	C80.653625,34.745758 103.443253,22.082535 132.707001,23.687176 
	C164.456848,25.428141 186.858795,42.023457 199.626938,71.185921 
	C201.164108,74.696793 202.674484,76.467506 206.715805,77.382782 
	C236.433609,84.113235 252.423492,115.830215 240.426178,144.299866 
z"/>
<path fill="#3449C5" opacity="1.000000" stroke="none" 
	d="
M97.949516,113.988586 
	C98.011513,128.690247 98.073509,143.391922 97.797180,158.740356 
	C97.643898,160.259354 97.828926,161.131592 98.013962,162.003815 
	C99.962318,164.776260 101.910675,167.548706 103.677567,170.664124 
	C103.004669,171.312531 102.513245,171.617981 102.021820,171.923401 
	C94.314133,171.982712 86.606453,172.042007 78.363953,171.845917 
	C77.566521,171.662949 77.303902,171.735382 77.041275,171.807816 
	C70.472939,169.570694 68.065910,166.324554 68.045502,159.302444 
	C68.000587,143.853745 68.031555,128.404816 68.031555,112.629471 
	C65.939049,112.379494 64.093956,112.159073 62.260883,111.940086 
	C69.493462,104.847763 76.551483,97.926613 83.454720,91.157242 
	C89.403946,97.242516 95.849464,103.835442 102.876732,111.023415 
	C101.592644,111.414902 99.969437,111.909767 97.976608,112.805481 
	C97.721161,113.467079 97.835342,113.727837 97.949516,113.988586 
z"/>
<path fill="#3549C5" opacity="1.000000" stroke="none" 
	d="
M149.019424,171.918243 
	C148.256241,171.976151 147.493057,172.034073 146.266602,171.848755 
	C145.540939,171.713837 145.278549,171.822144 145.016159,171.930450 
	C139.309158,171.988342 133.602158,172.046219 127.254822,171.776443 
	C125.757278,171.581024 124.900070,171.713257 124.042854,171.845505 
	C117.462662,169.962662 114.866524,166.801453 114.827347,160.205475 
	C114.758270,148.575592 114.808022,136.945007 114.808022,125.407555 
	C113.041031,124.557205 111.489861,123.810722 110.281242,123.229088 
	C117.013542,116.523415 123.550568,110.012238 130.100098,103.488617 
	C136.074875,109.747543 142.816452,116.809753 149.593277,123.908867 
	C148.579681,124.101791 147.059097,124.391212 144.879547,124.806061 
	C144.879547,135.275375 145.111984,145.866730 144.784546,156.440735 
	C144.612808,161.985962 145.874481,166.582611 149.906036,170.686401 
	C149.467728,171.403320 149.243576,171.660782 149.019424,171.918243 
z"/>
<path fill="#3549C5" opacity="1.000000" stroke="none" 
	d="
M190.961975,155.988037 
	C191.021988,156.746948 191.082001,157.505859 190.889252,158.725525 
	C190.744385,159.454544 190.852280,159.722778 190.960175,159.991028 
	C192.931488,163.431396 194.902802,166.871765 196.657410,170.643066 
	C195.633438,171.292618 194.826172,171.611252 194.018890,171.929901 
	C187.314484,171.984695 180.610092,172.039490 173.268173,171.774918 
	C171.769394,171.571960 170.908127,171.688370 170.046860,171.804779 
	C163.746902,169.694626 161.155884,166.347061 161.075211,159.795700 
	C160.981628,152.196899 161.053406,144.596054 161.053406,136.760117 
	C158.856323,136.525772 157.097427,136.338165 156.185257,136.240875 
	C162.815094,129.577118 169.816589,122.539825 176.634766,115.686783 
	C182.858292,122.095230 189.819260,129.263016 196.694763,136.342804 
	C195.130173,137.022171 190.353302,134.674988 190.900299,140.703583 
	C190.579544,141.285141 190.436890,141.449661 190.463669,141.484726 
	C190.606400,141.671555 190.791534,141.825974 190.961990,141.991608 
	C191.022003,142.750748 191.082016,143.509903 190.764709,144.927002 
	C190.578918,149.052643 190.770447,152.520340 190.961975,155.988037 
z"/>
<path fill="#233ABD" opacity="1.000000" stroke="none" 
	d="
M191.039215,155.536407 
	C190.770447,152.520340 190.578918,149.052643 190.674377,145.299484 
	C191.013062,148.370941 191.064758,151.727875 191.039215,155.536407 
z"/>
<path fill="#283BBD" opacity="1.000000" stroke="none" 
	d="
M194.345306,172.002518 
	C194.826172,171.611252 195.633438,171.292618 196.786224,170.961334 
	C196.311737,171.324173 195.491745,171.699661 194.345306,172.002518 
z"/>
<path fill="#1D38BD" opacity="1.000000" stroke="none" 
	d="
M98.064087,161.631271 
	C97.828926,161.131592 97.643898,160.259354 97.704208,159.202194 
	C98.004440,159.764420 98.059334,160.511566 98.064087,161.631271 
z"/>
<path fill="#2039BD" opacity="1.000000" stroke="none" 
	d="
M102.315750,171.992111 
	C102.513245,171.617981 103.004669,171.312531 103.798874,170.981110 
	C103.604324,171.323700 103.106995,171.692245 102.315750,171.992111 
z"/>
<path fill="#2039BD" opacity="1.000000" stroke="none" 
	d="
M124.402679,171.934113 
	C124.900070,171.713257 125.757278,171.581024 126.793030,171.683456 
	C126.235207,171.952988 125.498848,171.987854 124.402679,171.934113 
z"/>
<path fill="#283BBD" opacity="1.000000" stroke="none" 
	d="
M170.404846,171.907059 
	C170.908127,171.688370 171.769394,171.571960 172.804504,171.692505 
	C172.239853,171.956085 171.501343,171.982712 170.404846,171.907059 
z"/>
<path fill="#233ABD" opacity="1.000000" stroke="none" 
	d="
M191.027008,141.746048 
	C190.791534,141.825974 190.606400,141.671555 190.463669,141.484726 
	C190.436890,141.449661 190.579544,141.285141 190.808685,141.093430 
	C191.012909,141.171143 191.052460,141.335815 191.027008,141.746048 
z"/>
<path fill="#233ABD" opacity="1.000000" stroke="none" 
	d="
M191.024628,159.745712 
	C190.852280,159.722778 190.744385,159.454544 190.798859,159.097900 
	C191.003876,159.173126 191.046494,159.336761 191.024628,159.745712 
z"/>
<path fill="#2039BD" opacity="1.000000" stroke="none" 
	d="
M77.269348,171.890274 
	C77.303902,171.735382 77.566521,171.662949 77.903152,171.745789 
	C77.977158,171.901077 77.497429,171.972733 77.269348,171.890274 
z"/>
<path fill="#2039BD" opacity="1.000000" stroke="none" 
	d="
M145.257568,171.985870 
	C145.278549,171.822144 145.540939,171.713837 145.891327,171.762772 
	C145.979309,171.920029 145.498993,172.041306 145.257568,171.985870 
z"/>
<path fill="#2039BD" opacity="1.000000" stroke="none" 
	d="
M149.338242,171.933105 
	C149.243576,171.660782 149.467728,171.403320 149.930878,171.040283 
	C149.998932,171.272461 149.827988,171.610214 149.338242,171.933105 
z"/>
<path fill="#1D38BD" opacity="1.000000" stroke="none" 
	d="
M98.005249,113.744781 
	C97.835342,113.727837 97.721161,113.467079 97.762146,113.114105 
	C97.965195,113.181587 98.013092,113.341286 98.005249,113.744781 
z"/>
</svg>