<svg version="1.1" id="Layer_1" xmlns="http://www.w3.org/2000/svg" xmlns:xlink="http://www.w3.org/1999/xlink" x="0px" y="0px"
	 width="100%" viewBox="0 0 224 224" enable-background="new 0 0 224 224" xml:space="preserve">
<path fill="#222229" opacity="1.000000" stroke="none" 
	d="
M153.000000,225.000000 
	C102.000000,225.000000 51.500008,225.000000 1.000007,225.000000 
	C1.000005,150.333344 1.000005,75.666679 1.000002,1.000017 
	C75.666656,1.000011 150.333313,1.000011 224.999969,1.000006 
	C224.999985,75.666649 224.999985,150.333298 225.000000,224.999969 
	C201.166672,225.000000 177.333328,225.000000 153.000000,225.000000 
M145.717865,135.829086 
	C158.467896,139.762924 171.217926,143.696747 184.268051,147.723175 
	C186.741776,140.098984 189.078049,132.898453 191.548691,125.283821 
	C178.063858,120.767860 164.902802,116.360329 152.418381,111.425575 
	C165.392822,107.107155 178.367249,102.788742 191.608215,98.381615 
	C189.034378,90.536331 186.640976,83.241013 184.164703,75.693153 
	C170.296616,80.190948 157.076477,84.478600 144.281372,87.996002 
	C152.255005,76.803474 160.228622,65.610939 168.445938,54.076359 
	C161.945908,49.349251 155.715637,44.818329 149.239853,40.108856 
	C140.642227,51.746845 132.366287,62.949375 123.959312,73.203308 
	C123.959312,59.617107 123.959312,46.030907 123.959312,32.169319 
	C115.575851,32.169319 107.855461,32.169319 99.794067,32.169319 
	C99.794067,46.287041 99.794067,60.228825 99.291237,73.729332 
	C91.037811,62.589035 82.784386,51.448738 74.347221,40.060444 
	C67.660873,44.967083 61.421165,49.545967 55.096333,54.187317 
	C63.597824,65.946678 71.752647,77.226524 79.020714,88.253876 
	C65.935875,84.154716 52.851040,80.055565 39.350536,75.826195 
	C36.855068,83.488792 34.470703,90.810249 32.041420,98.269623 
	C45.635796,102.936722 58.776104,107.447937 71.183205,112.377716 
	C58.145515,116.642471 45.107826,120.907219 32.006294,125.192856 
	C34.560505,133.022705 36.919182,140.253159 39.390369,147.828522 
	C53.036037,143.491547 66.292618,139.278244 79.173538,135.806976 
	C71.217552,146.987640 63.261562,158.168289 55.129726,169.596069 
	C61.738564,174.363922 67.991577,178.875061 74.375313,183.480515 
	C82.181625,172.997101 89.605263,163.027588 97.418884,153.486359 
	C98.160294,153.655533 98.901695,153.824692 99.856384,154.831665 
	C99.856384,167.086746 99.856384,179.341827 99.856384,191.597870 
	C108.096237,191.597870 115.816879,191.597870 124.088158,191.597870 
	C124.088158,177.343567 124.088158,163.426544 124.685684,149.905701 
	C132.829834,161.098541 140.973999,172.291397 149.184891,183.575958 
	C155.882492,178.699432 162.034897,174.219849 168.454834,169.545471 
	C167.345581,167.954773 166.416138,166.614441 165.479126,165.279404 
	C158.625443,155.514374 151.770233,145.750397 145.717865,135.829086 
z"/>
<path fill="#FBFBFB" opacity="1.000000" stroke="none" 
	d="
M124.088150,149.509506 
	C124.088158,163.426544 124.088158,177.343567 124.088158,191.597870 
	C115.816879,191.597870 108.096237,191.597870 99.856384,191.597870 
	C99.856384,179.341827 99.856384,167.086746 99.847595,154.046295 
	C99.773567,152.511063 99.708336,151.761200 99.730728,150.635956 
	C99.781502,150.006241 99.744637,149.751907 99.832336,149.238022 
	C100.327866,148.138199 100.698822,147.297943 101.368942,146.264328 
	C104.965508,141.614471 108.262917,137.157974 111.835541,132.329529 
	C116.022614,137.854507 119.882484,142.947708 123.742722,148.297363 
	C123.858116,148.872360 123.973137,149.190933 124.088150,149.509506 
z"/>
<path fill="#D33AFB" opacity="1.000000" stroke="none" 
	d="
M143.856339,88.766243 
	C157.076477,84.478600 170.296616,80.190948 184.164703,75.693153 
	C186.640976,83.241013 189.034378,90.536331 191.608215,98.381615 
	C178.367249,102.788742 165.392822,107.107155 151.822021,111.673752 
	C150.331940,111.928947 149.438248,111.935951 148.350800,111.600464 
	C142.730148,109.379623 137.303238,107.501266 131.691040,105.558777 
	C134.866394,100.520576 137.900421,95.706642 141.091492,90.698318 
	C142.117813,89.924706 142.987076,89.345474 143.856339,88.766243 
z"/>
<path fill="#D33AFB" opacity="1.000000" stroke="none" 
	d="
M79.549202,135.064941 
	C66.292618,139.278244 53.036037,143.491547 39.390369,147.828522 
	C36.919182,140.253159 34.560505,133.022705 32.006294,125.192856 
	C45.107826,120.907219 58.145515,116.642471 71.797714,112.173462 
	C73.089546,111.978760 73.766861,111.988297 74.760406,112.241692 
	C80.665092,114.322754 86.253555,116.159966 92.205627,118.116722 
	C90.913635,119.988541 89.845291,121.407982 88.913803,122.912178 
	C86.877571,126.200371 84.910843,129.531601 82.674492,132.962875 
	C81.471909,133.741974 80.510559,134.403458 79.549202,135.064941 
z"/>
<path fill="#01EEE3" opacity="1.000000" stroke="none" 
	d="
M79.907463,88.506371 
	C71.752647,77.226524 63.597824,65.946678 55.096333,54.187317 
	C61.421165,49.545967 67.660873,44.967083 74.347221,40.060444 
	C82.784386,51.448738 91.037811,62.589035 99.652100,74.196869 
	C100.053238,75.021957 100.093521,75.379494 100.049294,76.216095 
	C99.964783,82.648430 99.964783,88.601692 99.964783,94.957474 
	C93.662781,93.246498 87.955177,91.696907 81.990303,90.092735 
	C81.124512,89.527565 80.515991,89.016968 79.907463,88.506371 
z"/>
<path fill="#01B6ED" opacity="1.000000" stroke="none" 
	d="
M79.464088,88.380127 
	C80.515991,89.016968 81.124512,89.527565 81.982605,90.431442 
	C85.470772,95.652611 88.709358,100.480492 91.978935,105.354568 
	C85.801910,107.694817 80.123047,109.846329 74.444183,111.997849 
	C73.766861,111.988297 73.089546,111.978760 72.164322,111.964188 
	C58.776104,107.447937 45.635796,102.936722 32.041420,98.269623 
	C34.470703,90.810249 36.855068,83.488792 39.350536,75.826195 
	C52.851040,80.055565 65.935875,84.154716 79.464088,88.380127 
z"/>
<path fill="#F7025A" opacity="1.000000" stroke="none" 
	d="
M79.361374,135.435959 
	C80.510559,134.403458 81.471909,133.741974 83.078598,133.036530 
	C88.890129,131.628250 94.056335,130.263931 99.938354,128.710571 
	C99.938354,131.655899 99.798195,134.070953 99.972176,136.463181 
	C100.215126,139.803619 100.692642,143.126999 101.069778,146.457687 
	C100.698822,147.297943 100.327866,148.138199 99.647903,149.452698 
	C99.161911,150.253418 98.984917,150.579910 98.533295,151.009552 
	C97.848740,151.761169 97.438820,152.409622 97.028900,153.058075 
	C89.605263,163.027588 82.181625,172.997101 74.375313,183.480515 
	C67.991577,178.875061 61.738564,174.363922 55.129726,169.596069 
	C63.261562,158.168289 71.217552,146.987640 79.361374,135.435959 
z"/>
<path fill="#FBFBFB" opacity="1.000000" stroke="none" 
	d="
M100.133804,75.737038 
	C100.093521,75.379494 100.053238,75.021957 99.903511,74.417511 
	C99.794067,60.228825 99.794067,46.287041 99.794067,32.169319 
	C107.855461,32.169319 115.575851,32.169319 123.959312,32.169319 
	C123.959312,46.030907 123.959312,59.617107 123.896538,73.902252 
	C123.799202,74.941216 123.764641,75.281235 123.456596,75.823700 
	C119.498093,81.005516 115.813072,85.984894 111.920044,91.245338 
	C107.806000,85.832085 103.969902,80.784561 100.133804,75.737038 
z"/>
<path fill="#01B6ED" opacity="1.000000" stroke="none" 
	d="
M148.544540,111.942947 
	C149.438248,111.935951 150.331940,111.928947 151.483688,111.937363 
	C164.902802,116.360329 178.063858,120.767860 191.548691,125.283821 
	C189.078049,132.898453 186.741776,140.098984 184.268051,147.723175 
	C171.217926,143.696747 158.467896,139.762924 145.024170,135.794617 
	C143.231293,134.836472 142.132111,133.912781 141.000885,132.634399 
	C137.900360,127.658875 134.831909,123.038025 131.668640,118.274422 
	C137.324402,116.152504 142.934464,114.047729 148.544540,111.942947 
z"/>
<path fill="#01EFE3" opacity="1.000000" stroke="none" 
	d="
M141.032944,132.989090 
	C142.132111,133.912781 143.231293,134.836472 144.622986,135.873138 
	C151.770233,145.750397 158.625443,155.514374 165.479126,165.279404 
	C166.416138,166.614441 167.345581,167.954773 168.454834,169.545471 
	C162.034897,174.219849 155.882492,178.699432 149.184891,183.575958 
	C140.973999,172.291397 132.829834,161.098541 124.386917,149.707611 
	C123.973137,149.190933 123.858116,148.872360 123.776146,147.825851 
	C123.809196,141.136169 123.809196,135.174408 123.809196,128.852112 
	C129.923492,130.320709 135.478226,131.654892 141.032944,132.989090 
z"/>
<path fill="#F7025A" opacity="1.000000" stroke="none" 
	d="
M123.730087,75.621262 
	C123.764641,75.281235 123.799202,74.941216 123.962051,74.376549 
	C132.366287,62.949375 140.642227,51.746845 149.239853,40.108856 
	C155.715637,44.818329 161.945908,49.349251 168.445938,54.076359 
	C160.228622,65.610939 152.255005,76.803474 144.068848,88.381119 
	C142.987076,89.345474 142.117813,89.924706 140.680847,90.740692 
	C134.871338,92.173836 129.629532,93.370232 123.730087,94.716721 
	C123.730087,88.190277 123.730087,81.905769 123.730087,75.621262 
z"/>
<path fill="#1C1C23" opacity="1.000000" stroke="none" 
	d="
M97.223892,153.272217 
	C97.438820,152.409622 97.848740,151.761169 98.740517,151.050110 
	C99.222374,150.987488 99.643105,151.011337 99.643105,151.011337 
	C99.708336,151.761200 99.773567,152.511063 99.740952,153.627380 
	C98.901695,153.824692 98.160294,153.655533 97.223892,153.272217 
z"/>
<path fill="#24242B" opacity="1.000000" stroke="none" 
	d="
M123.456604,75.823700 
	C123.730087,81.905769 123.730087,88.190277 123.730087,94.716721 
	C129.629532,93.370232 134.871338,92.173836 140.523788,90.935074 
	C137.900421,95.706642 134.866394,100.520576 131.691040,105.558777 
	C137.303238,107.501266 142.730148,109.379623 148.350800,111.600464 
	C142.934464,114.047729 137.324402,116.152504 131.668640,118.274422 
	C134.831909,123.038025 137.900360,127.658875 141.000885,132.634399 
	C135.478226,131.654892 129.923492,130.320709 123.809196,128.852112 
	C123.809196,135.174408 123.809196,141.136169 123.775772,147.569427 
	C119.882484,142.947708 116.022614,137.854507 111.835541,132.329529 
	C108.262917,137.157974 104.965508,141.614471 101.368942,146.264328 
	C100.692642,143.126999 100.215126,139.803619 99.972176,136.463181 
	C99.798195,134.070953 99.938354,131.655899 99.938354,128.710571 
	C94.056335,130.263931 88.890129,131.628250 83.319824,132.918915 
	C84.910843,129.531601 86.877571,126.200371 88.913803,122.912178 
	C89.845291,121.407982 90.913635,119.988541 92.205627,118.116722 
	C86.253555,116.159966 80.665092,114.322754 74.760406,112.241699 
	C80.123047,109.846329 85.801910,107.694817 91.978935,105.354568 
	C88.709358,100.480492 85.470772,95.652611 82.239876,90.486015 
	C87.955177,91.696907 93.662781,93.246498 99.964783,94.957474 
	C99.964783,88.601692 99.964783,82.648430 100.049294,76.216095 
	C103.969902,80.784561 107.806000,85.832085 111.920044,91.245338 
	C115.813072,85.984894 119.498093,81.005516 123.456604,75.823700 
z"/>
<path fill="#222229" opacity="1.000000" stroke="none" 
	d="
M99.730728,150.635956 
	C99.643105,151.011337 99.222374,150.987488 99.015152,150.946945 
	C98.984917,150.579910 99.161911,150.253418 99.523338,149.712250 
	C99.744637,149.751907 99.781502,150.006241 99.730728,150.635956 
z"/>
</svg>