<svg version="1.1" id="Layer_1" xmlns="http://www.w3.org/2000/svg" xmlns:xlink="http://www.w3.org/1999/xlink" x="0px" y="0px"
	 width="100%" viewBox="0 0 262 256" enable-background="new 0 0 262 256" xml:space="preserve">
<path fill="#FEFEFE" opacity="1.000000" stroke="none" 
	d="
M1.000000,124.000000 
	C1.000000,83.023048 1.000000,42.046093 1.000000,1.034571 
	C88.261177,1.034571 175.522369,1.034571 262.891785,1.034571 
	C262.891785,86.213104 262.891785,171.426392 262.891785,257.000000 
	C217.313065,257.000000 171.625198,257.000000 125.558807,256.538574 
	C125.201401,226.415451 125.768951,196.740540 125.052811,167.096619 
	C124.569931,147.108307 140.359634,132.725830 158.867386,133.577515 
	C172.092117,134.186111 185.640091,134.133377 198.643890,131.970871 
	C235.616669,125.822365 257.245300,85.737755 244.060074,50.390079 
	C233.445587,21.934107 199.699997,2.127840 167.946365,13.226885 
	C146.025864,20.888891 132.036423,36.115089 126.542519,58.994522 
	C124.268471,68.464844 122.275505,78.213882 118.350868,87.033470 
	C109.690628,106.495117 94.354912,119.585533 74.671974,128.153137 
	C72.089485,129.016617 69.883842,129.907349 67.341850,130.768982 
	C66.360107,130.919205 65.714722,131.098541 64.752098,131.165283 
	C63.629715,131.395676 62.824566,131.738647 61.689751,132.051758 
	C60.930233,132.110458 60.500381,132.198990 59.654015,132.199371 
	C56.697254,132.659012 54.157013,133.206833 51.351444,133.683182 
	C50.734245,133.693085 50.382381,133.774475 49.671673,133.710190 
	C46.191906,133.642868 43.070980,133.721207 39.711113,133.695557 
	C39.131229,133.627792 38.790291,133.664032 38.173714,133.441071 
	C27.910553,130.533325 17.923031,127.884811 7.723726,125.074715 
	C7.168388,124.835197 6.824831,124.757263 6.422444,124.389076 
	C6.110076,123.798561 5.856538,123.498291 5.892250,123.044228 
	C6.008376,122.317726 5.835252,121.745010 5.662127,121.172295 
	C5.108769,121.789314 4.555412,122.406334 3.833869,123.212524 
	C3.212901,123.623192 2.760120,123.844681 1.980925,124.041306 
	C1.436340,124.010956 1.218170,124.005478 1.000000,124.000000 
z"/>
<path fill="#020202" opacity="1.000000" stroke="none" 
	d="
M60.070530,132.287521 
	C60.500381,132.198990 60.930233,132.110458 61.874001,132.287872 
	C63.281719,132.128525 64.175529,131.703201 65.069336,131.277878 
	C65.714722,131.098541 66.360107,130.919205 67.737259,130.892517 
	C70.662285,130.090240 72.855553,129.135315 75.048813,128.180374 
	C94.354912,119.585533 109.690628,106.495117 118.350868,87.033470 
	C122.275505,78.213882 124.268471,68.464844 126.542519,58.994522 
	C132.036423,36.115089 146.025864,20.888891 167.946365,13.226885 
	C199.699997,2.127840 233.445587,21.934107 244.060074,50.390079 
	C257.245300,85.737755 235.616669,125.822365 198.643890,131.970871 
	C185.640091,134.133377 172.092117,134.186111 158.867386,133.577515 
	C140.359634,132.725830 124.569931,147.108307 125.052811,167.096619 
	C125.768951,196.740540 125.201401,226.415451 125.090149,256.538574 
	C84.979103,257.000000 44.958210,257.000000 4.430999,256.532532 
	C3.916294,252.569870 3.900762,249.074707 3.900610,245.579544 
	C3.898939,207.131912 3.863765,168.684128 4.009392,130.237045 
	C4.016420,128.381378 5.620764,126.531761 6.481275,124.679321 
	C6.824831,124.757263 7.168388,124.835197 7.768130,125.421265 
	C17.571404,130.847656 27.333321,134.924835 38.449352,133.700287 
	C38.790291,133.664032 39.131229,133.627792 39.984543,133.999542 
	C43.674782,134.223648 46.852650,134.039749 50.030518,133.855865 
	C50.382381,133.774475 50.734245,133.693085 51.783295,133.836487 
	C55.010490,133.470001 57.540508,132.878754 60.070530,132.287521 
z"/>
<path fill="#353535" opacity="1.000000" stroke="none" 
	d="
M6.422444,124.389076 
	C5.620764,126.531761 4.016420,128.381378 4.009392,130.237045 
	C3.863765,168.684128 3.898939,207.131912 3.900610,245.579544 
	C3.900762,249.074707 3.916294,252.569870 3.962342,256.532532 
	C3.555556,257.000000 3.111111,257.000000 2.338529,256.531372 
	C2.010851,214.382919 2.006587,172.703110 2.024378,131.023315 
	C2.025367,128.704239 2.208815,126.385216 2.307338,124.066170 
	C2.760120,123.844681 3.212901,123.623192 4.090971,123.322235 
	C4.878508,123.227852 5.240756,123.212929 5.603002,123.198013 
	C5.856538,123.498291 6.110076,123.798561 6.422444,124.389076 
z"/>
<path fill="#EFEFEF" opacity="1.000000" stroke="none" 
	d="
M1.980924,124.041306 
	C2.208815,126.385216 2.025367,128.704239 2.024378,131.023315 
	C2.006587,172.703110 2.010851,214.382919 2.005196,256.531372 
	C1.666667,255.672119 1.043599,254.344604 1.042012,253.016327 
	C0.990988,210.323364 1.000000,167.630341 1.000000,124.468658 
	C1.218170,124.005478 1.436340,124.010956 1.980924,124.041306 
z"/>
<path fill="#353535" opacity="1.000000" stroke="none" 
	d="
M38.173714,133.441071 
	C27.333321,134.924835 17.571404,130.847656 7.979912,125.582840 
	C17.923031,127.884811 27.910553,130.533325 38.173714,133.441071 
z"/>
<path fill="#353535" opacity="1.000000" stroke="none" 
	d="
M49.671673,133.710190 
	C46.852650,134.039749 43.674782,134.223648 40.223488,134.103546 
	C43.070980,133.721207 46.191906,133.642868 49.671673,133.710190 
z"/>
<path fill="#353535" opacity="1.000000" stroke="none" 
	d="
M59.654015,132.199371 
	C57.540508,132.878754 55.010490,133.470001 52.048622,133.907959 
	C54.157013,133.206833 56.697254,132.659012 59.654015,132.199371 
z"/>
<path fill="#353535" opacity="1.000000" stroke="none" 
	d="
M74.671974,128.153137 
	C72.855553,129.135315 70.662285,130.090240 68.073608,130.921631 
	C69.883842,129.907349 72.089485,129.016617 74.671974,128.153137 
z"/>
<path fill="#EFEFEF" opacity="1.000000" stroke="none" 
	d="
M5.892251,123.044220 
	C5.240756,123.212929 4.878508,123.227852 4.259157,123.133064 
	C4.555412,122.406334 5.108769,121.789314 5.662127,121.172295 
	C5.835252,121.745010 6.008376,122.317726 5.892251,123.044220 
z"/>
<path fill="#353535" opacity="1.000000" stroke="none" 
	d="
M64.752098,131.165283 
	C64.175529,131.703201 63.281719,132.128525 62.203663,132.317719 
	C62.824566,131.738647 63.629715,131.395676 64.752098,131.165283 
z"/>
</svg>