<svg version="1.1" id="Layer_1" xmlns="http://www.w3.org/2000/svg" xmlns:xlink="http://www.w3.org/1999/xlink" x="0px" y="0px"
	 width="100%" viewBox="0 0 178 167" enable-background="new 0 0 178 167" xml:space="preserve">
<path fill="#FCFCFC" opacity="1.000000" stroke="none" 
	d="
M77.000000,168.000000 
	C51.683170,168.000000 26.366339,168.000000 1.024754,168.000000 
	C1.024754,112.386108 1.024754,56.772202 1.024754,1.079147 
	C60.241825,1.079147 119.483788,1.079147 178.862885,1.079147 
	C178.862885,56.666458 178.862885,112.333176 178.862885,168.000000 
	C151.234680,168.000000 123.585999,168.000000 95.618858,167.624756 
	C99.685982,166.519714 104.179436,166.179031 108.439919,164.997955 
	C139.826309,156.297058 160.118500,136.120651 168.031189,104.620094 
	C181.994080,49.033466 134.231796,-3.267968 77.462563,4.859719 
	C39.182392,10.340316 9.902903,41.369205 7.162835,79.359726 
	C4.121139,121.532280 32.614399,158.378754 74.239761,166.195435 
	C75.237617,166.382812 76.083328,167.380341 77.000000,168.000000 
z"/>
<path fill="#090909" opacity="1.000000" stroke="none" 
	d="
M77.467941,168.000000 
	C76.083328,167.380341 75.237617,166.382812 74.239761,166.195435 
	C32.614399,158.378754 4.121139,121.532280 7.162835,79.359726 
	C9.902903,41.369205 39.182392,10.340316 77.462563,4.859719 
	C134.231796,-3.267968 181.994080,49.033466 168.031189,104.620094 
	C160.118500,136.120651 139.826309,156.297058 108.439919,164.997955 
	C104.179436,166.179031 99.685982,166.519714 95.150200,167.624756 
	C89.311958,168.000000 83.623917,168.000000 77.467941,168.000000 
M140.515137,39.002934 
	C128.610062,26.235270 113.921082,18.476908 96.736115,16.147961 
	C57.415348,10.819118 20.603056,42.769314 18.840725,82.494385 
	C16.819504,128.055145 59.975994,167.227097 108.567993,152.652237 
	C158.859695,137.567505 174.301407,76.449829 140.515137,39.002934 
z"/>
<path fill="#FDFDFD" opacity="1.000000" stroke="none" 
	d="
M140.763000,39.256584 
	C174.301407,76.449829 158.859695,137.567505 108.567993,152.652237 
	C59.975994,167.227097 16.819504,128.055145 18.840725,82.494385 
	C20.603056,42.769314 57.415348,10.819118 96.736115,16.147961 
	C113.921082,18.476908 128.610062,26.235270 140.763000,39.256584 
M59.133251,130.383652 
	C75.265396,117.218056 91.397545,104.052460 107.529686,90.886864 
	C99.991577,89.808754 93.025192,89.738251 86.063171,89.880867 
	C84.953400,89.903603 83.410767,90.585358 82.832031,91.464966 
	C74.438705,104.221832 66.175812,117.064514 57.377518,130.029999 
	C57.751167,130.233597 58.124821,130.437210 59.133251,130.383652 
M83.127861,69.642105 
	C78.711830,73.311897 74.295792,76.981682 69.879761,80.651466 
	C69.989632,81.053772 70.099510,81.456078 70.209389,81.858383 
	C76.775360,81.858383 83.350479,82.048012 89.901237,81.732391 
	C91.659592,81.647675 93.977264,80.460945 94.959709,79.036354 
	C101.565414,69.457764 107.898277,59.690403 114.278175,49.957088 
	C116.097069,47.182152 117.778961,44.317417 119.523689,41.493866 
	C119.137772,41.175552 118.751854,40.857239 118.365936,40.538925 
	C106.800514,50.086357 95.235092,59.633785 83.127861,69.642105 
z"/>
<path fill="#0D0D0D" opacity="1.000000" stroke="none" 
	d="
M83.398766,69.411659 
	C95.235092,59.633785 106.800514,50.086357 118.365936,40.538925 
	C118.751854,40.857239 119.137772,41.175552 119.523689,41.493866 
	C117.778961,44.317417 116.097069,47.182152 114.278175,49.957088 
	C107.898277,59.690403 101.565414,69.457764 94.959709,79.036354 
	C93.977264,80.460945 91.659592,81.647675 89.901237,81.732391 
	C83.350479,82.048012 76.775360,81.858383 70.209389,81.858383 
	C70.099510,81.456078 69.989632,81.053772 69.879761,80.651466 
	C74.295792,76.981682 78.711830,73.311897 83.398766,69.411659 
z"/>
<path fill="#0B0B0B" opacity="1.000000" stroke="none" 
	d="
M57.881706,129.886658 
	C66.175812,117.064514 74.438705,104.221832 82.832031,91.464966 
	C83.410767,90.585358 84.953400,89.903603 86.063171,89.880867 
	C93.025192,89.738251 99.991577,89.808754 107.529686,90.886864 
	C91.397545,104.052460 75.265396,117.218056 58.672821,130.314575 
	C58.212395,130.245483 57.881706,129.886658 57.881706,129.886658 
z"/>
<path fill="#0B0B0B" opacity="1.000000" stroke="none" 
	d="
M58.355434,130.443146 
	C58.124821,130.437210 57.751167,130.233597 57.629612,129.958328 
	C57.881706,129.886658 58.212395,130.245483 58.355434,130.443146 
z"/>
</svg>